<svg id="Capa_1" enable-background="new 0 0 512 512" height="512" viewBox="0 0 512 512" width="512" xmlns="http://www.w3.org/2000/svg"><g><g><path d="m441.87 159c-4.143 0-7.5 3.358-7.5 7.5v317.797c0 7.004-5.698 12.703-12.703 12.703h-331.334c-7.005 0-12.703-5.699-12.703-12.703v-74.368c0-4.142-3.357-7.5-7.5-7.5s-7.5 3.358-7.5 7.5v74.368c0 15.275 12.428 27.703 27.703 27.703h331.334c15.275 0 27.703-12.428 27.703-27.703v-317.797c0-4.142-3.357-7.5-7.5-7.5z"/><path d="m421.667 0h-331.334c-15.275 0-27.703 12.428-27.703 27.703v347.123c0 4.142 3.357 7.5 7.5 7.5s7.5-3.358 7.5-7.5v-297.196h356.74v53.833c0 4.142 3.357 7.5 7.5 7.5s7.5-3.358 7.5-7.5v-103.76c0-15.275-12.428-27.703-27.703-27.703zm-344.037 62.63v-34.927c0-7.004 5.698-12.703 12.703-12.703h331.334c7.005 0 12.703 5.699 12.703 12.703v34.927z"/><path d="m256 94.955c-53.152 0-96.395 43.242-96.395 96.395s43.242 96.395 96.395 96.395 96.395-43.242 96.395-96.395-43.243-96.395-96.395-96.395zm-55.042 156.293c10.708-20.326 31.79-33.205 55.042-33.205s44.333 12.88 55.042 33.205c-14.501 13.336-33.834 21.497-55.042 21.497s-40.54-8.161-55.042-21.497zm24.661-78.586c0-16.752 13.629-30.381 30.381-30.381s30.381 13.629 30.381 30.381-13.629 30.381-30.381 30.381-30.381-13.629-30.381-30.381zm95.964 66.823c-8.889-14.312-22.121-25.181-37.54-31.184 10.547-8.317 17.338-21.196 17.338-35.64 0-25.023-20.357-45.381-45.381-45.381s-45.381 20.358-45.381 45.381c0 14.444 6.791 27.323 17.339 35.64-15.419 6.002-28.651 16.872-37.54 31.184-9.929-13.492-15.812-30.137-15.812-48.136 0-44.881 36.514-81.395 81.395-81.395s81.395 36.514 81.395 81.395c-.001 17.999-5.884 34.644-15.813 48.136z"/><path d="m389.342 305.069h-169.708c-4.143 0-7.5 3.358-7.5 7.5s3.357 7.5 7.5 7.5h169.708c4.143 0 7.5-3.358 7.5-7.5s-3.358-7.5-7.5-7.5z"/><path d="m115.158 312.569v32.325c0 4.142 3.357 7.5 7.5 7.5h60.61c4.143 0 7.5-3.358 7.5-7.5v-32.325c0-4.142-3.357-7.5-7.5-7.5h-60.61c-4.142 0-7.5 3.358-7.5 7.5zm15 7.5h45.61v17.325h-45.61z"/><path d="m219.634 352.395h109.098c4.143 0 7.5-3.358 7.5-7.5s-3.357-7.5-7.5-7.5h-109.098c-4.143 0-7.5 3.358-7.5 7.5s3.357 7.5 7.5 7.5z"/><path d="m389.342 369.72h-169.708c-4.143 0-7.5 3.358-7.5 7.5s3.357 7.5 7.5 7.5h169.708c4.143 0 7.5-3.358 7.5-7.5s-3.358-7.5-7.5-7.5z"/><path d="m115.158 409.545c0 4.142 3.357 7.5 7.5 7.5h60.61c4.143 0 7.5-3.358 7.5-7.5v-32.325c0-4.142-3.357-7.5-7.5-7.5h-60.61c-4.143 0-7.5 3.358-7.5 7.5zm15-24.825h45.61v17.325h-45.61z"/><path d="m219.634 417.045h109.098c4.143 0 7.5-3.358 7.5-7.5s-3.357-7.5-7.5-7.5h-109.098c-4.143 0-7.5 3.358-7.5 7.5s3.357 7.5 7.5 7.5z"/><path d="m396.842 441.87c0-4.142-3.357-7.5-7.5-7.5h-169.708c-4.143 0-7.5 3.358-7.5 7.5s3.357 7.5 7.5 7.5h169.708c4.142 0 7.5-3.358 7.5-7.5z"/><path d="m115.158 474.195c0 4.142 3.357 7.5 7.5 7.5h60.61c4.143 0 7.5-3.358 7.5-7.5v-32.325c0-4.142-3.357-7.5-7.5-7.5h-60.61c-4.143 0-7.5 3.358-7.5 7.5zm15-24.825h45.61v17.325h-45.61z"/><path d="m219.634 466.695c-4.143 0-7.5 3.358-7.5 7.5s3.357 7.5 7.5 7.5h109.098c4.143 0 7.5-3.358 7.5-7.5s-3.357-7.5-7.5-7.5z"/><circle cx="397.423" cy="38.815" r="8.081"/><path d="m365.098 30.734c-4.463 0-8.082 3.618-8.082 8.081s3.618 8.081 8.082 8.081c4.463 0 8.081-3.618 8.081-8.081s-3.618-8.081-8.081-8.081z"/><path d="m332.772 30.734c-4.463 0-8.082 3.618-8.082 8.081s3.618 8.081 8.082 8.081c4.463 0 8.081-3.618 8.081-8.081.001-4.463-3.617-8.081-8.081-8.081z"/></g></g></svg>